<svg xmlns="http://www.w3.org/2000/svg" viewBox="0 0 500 500"><g id="freepik--background-simple--inject-3"><path d="M467.77,225.94c-2.58-58.8-34.27-120.44-77.69-155.72-37-30.09-84.8-34.41-129-21-69.05,21-63.89,40.3-100.64,67s-66.53,4.18-101.61,42.3S21.23,247.39,36.63,283.44s56.24,50,66.37,78.79S170,470.78,273,442c30.77-8.59,61-22.09,86.27-42,20.93-16.45,33.71-41.59,55.33-57C454.63,314.46,469.76,271,467.77,225.94Z" style="fill:#92E3A9"></path><path d="M467.77,225.94c-2.58-58.8-34.27-120.44-77.69-155.72-37-30.09-84.8-34.41-129-21-69.05,21-63.89,40.3-100.64,67s-66.53,4.18-101.61,42.3S21.23,247.39,36.63,283.44s56.24,50,66.37,78.79S170,470.78,273,442c30.77-8.59,61-22.09,86.27-42,20.93-16.45,33.71-41.59,55.33-57C454.63,314.46,469.76,271,467.77,225.94Z" style="fill:#fff;opacity:0.7000000000000001"></path></g><g id="freepik--Grid--inject-3"><g style="opacity:0.1"><line x1="60.15" y1="69.63" x2="60.15" y2="397.65" style="fill:none;stroke:#000;stroke-linecap:round;stroke-linejoin:round"></line><line x1="88.33" y1="69.63" x2="88.33" y2="397.65" style="fill:none;stroke:#000;stroke-linecap:round;stroke-linejoin:round"></line><line x1="116.51" y1="69.63" x2="116.51" y2="397.65" style="fill:none;stroke:#000;stroke-linecap:round;stroke-linejoin:round"></line><line x1="144.69" y1="69.63" x2="144.69" y2="397.65" style="fill:none;stroke:#000;stroke-linecap:round;stroke-linejoin:round"></line><line x1="172.87" y1="69.63" x2="172.87" y2="397.65" style="fill:none;stroke:#000;stroke-linecap:round;stroke-linejoin:round"></line><line x1="201.06" y1="69.63" x2="201.06" y2="397.65" style="fill:none;stroke:#000;stroke-linecap:round;stroke-linejoin:round"></line><line x1="229.24" y1="69.63" x2="229.24" y2="397.65" style="fill:none;stroke:#000;stroke-linecap:round;stroke-linejoin:round"></line><line x1="257.42" y1="69.63" x2="257.42" y2="397.65" style="fill:none;stroke:#000;stroke-linecap:round;stroke-linejoin:round"></line><line x1="285.6" y1="69.63" x2="285.6" y2="397.65" style="fill:none;stroke:#000;stroke-linecap:round;stroke-linejoin:round"></line><line x1="313.79" y1="69.63" x2="313.79" y2="397.65" style="fill:none;stroke:#000;stroke-linecap:round;stroke-linejoin:round"></line><line x1="341.97" y1="69.63" x2="341.97" y2="397.65" style="fill:none;stroke:#000;stroke-linecap:round;stroke-linejoin:round"></line><line x1="370.15" y1="69.63" x2="370.15" y2="397.65" style="fill:none;stroke:#000;stroke-linecap:round;stroke-linejoin:round"></line><line x1="398.33" y1="69.63" x2="398.33" y2="397.65" style="fill:none;stroke:#000;stroke-linecap:round;stroke-linejoin:round"></line><line x1="426.52" y1="69.63" x2="426.52" y2="397.65" style="fill:none;stroke:#000;stroke-linecap:round;stroke-linejoin:round"></line><line x1="454.7" y1="69.63" x2="454.7" y2="397.65" style="fill:none;stroke:#000;stroke-linecap:round;stroke-linejoin:round"></line><line x1="50" y1="90.13" x2="465.97" y2="90.13" style="fill:none;stroke:#000;stroke-linecap:round;stroke-linejoin:round"></line><line x1="50" y1="113.87" x2="465.97" y2="113.87" style="fill:none;stroke:#000;stroke-linecap:round;stroke-linejoin:round"></line><line x1="50" y1="137.61" x2="465.97" y2="137.61" style="fill:none;stroke:#000;stroke-linecap:round;stroke-linejoin:round"></line><line x1="50" y1="161.35" x2="465.97" y2="161.35" style="fill:none;stroke:#000;stroke-linecap:round;stroke-linejoin:round"></line><line x1="50" y1="185.09" x2="465.97" y2="185.09" style="fill:none;stroke:#000;stroke-linecap:round;stroke-linejoin:round"></line><line x1="50" y1="208.82" x2="465.97" y2="208.82" style="fill:none;stroke:#000;stroke-linecap:round;stroke-linejoin:round"></line><line x1="50" y1="232.56" x2="465.97" y2="232.56" style="fill:none;stroke:#000;stroke-linecap:round;stroke-linejoin:round"></line><line x1="50" y1="256.3" x2="465.97" y2="256.3" style="fill:none;stroke:#000;stroke-linecap:round;stroke-linejoin:round"></line><line x1="50" y1="280.04" x2="465.97" y2="280.04" style="fill:none;stroke:#000;stroke-linecap:round;stroke-linejoin:round"></line><line x1="50" y1="303.78" x2="465.97" y2="303.78" style="fill:none;stroke:#000;stroke-linecap:round;stroke-linejoin:round"></line><line x1="50" y1="327.52" x2="465.97" y2="327.52" style="fill:none;stroke:#000;stroke-linecap:round;stroke-linejoin:round"></line><line x1="50" y1="351.25" x2="465.97" y2="351.25" style="fill:none;stroke:#000;stroke-linecap:round;stroke-linejoin:round"></line><line x1="50" y1="374.99" x2="465.97" y2="374.99" style="fill:none;stroke:#000;stroke-linecap:round;stroke-linejoin:round"></line></g><polygon points="234.64 423.41 229.81 425.64 229.44 429.36 231.67 431.96 235.02 431.96 238.36 430.1 240.22 427.87 234.64 423.41" style="fill:#263238"></polygon></g><g id="freepik--Arrow--inject-3"><path d="M435.32,328.59l-1.58-17.4a1.5,1.5,0,0,0-2.5-1l-8.57,7.72-4-43.43a1.48,1.48,0,0,0-1-1.29,1.51,1.51,0,0,0-1.6.46l-9.22,10.91v-66a1.5,1.5,0,0,0-2.86-.63l-10.73,23.25L389.5,210.8a1.5,1.5,0,0,0-2.64-.79L376.81,221.9l-5.7-20a1.5,1.5,0,0,0-2.81-.21l-9,19.64V168.9a1.5,1.5,0,0,0-2.67-.94l-6.37,8L348.5,160.1a1.52,1.52,0,0,0-.73-1.12,1.47,1.47,0,0,0-1.32-.1l-14.31,5.72-2-23.88a1.51,1.51,0,0,0-1.11-1.32,1.49,1.49,0,0,0-1.62.59l-8.06,11.63-8.72-24.23a1.5,1.5,0,0,0-2.8,0l-4.39,11-4.61-32.21a1.5,1.5,0,0,0-2.89-.3l-8.17,22.69-1.93-6.43a1.51,1.51,0,0,0-2.5-.63l-6.85,6.85-7.91-26.71a1.5,1.5,0,0,0-2.44-.7l-17.83,15.85-10-25a1.5,1.5,0,0,0-2.75-.09l-10.81,22.61L209,93.54a1.49,1.49,0,0,0-1.38-.58,1.52,1.52,0,0,0-1.2.92l-12,29-9.2-11a1.5,1.5,0,0,0-2.5.29L174,129.51l-10.4-12.29a1.48,1.48,0,0,0-1.38-.51,1.51,1.51,0,0,0-1.16.91l-13,31.91-11.37-17.07A1.5,1.5,0,0,0,134,133l-11.51,62.35-6-31.07a1.5,1.5,0,0,0-3,.1l-8.35,67.8-6.63-4.15a1.5,1.5,0,0,0-2.3,1.28v9.16l-6.34-4a1.49,1.49,0,0,0-2.28,1.13l-4,42.9L71.91,265a1.5,1.5,0,0,0-2.63.86L66,304.73a1.5,1.5,0,0,0,3,.25l3-35.29,11.69,13.49a1.51,1.51,0,0,0,1.59.45,1.53,1.53,0,0,0,1-1.29l4.09-44L97,242.47a1.5,1.5,0,0,0,2.29-1.28V232l6.34,4a1.5,1.5,0,0,0,2.28-1.09l7.48-60.74,5.1,26.21a1.5,1.5,0,0,0,0,.2,1.86,1.86,0,0,0,0,.33l.63,2.85h0a1.5,1.5,0,0,0,.58.88h0a1.23,1.23,0,0,0,.32.17h0a1.58,1.58,0,0,0,.72.09,1.59,1.59,0,0,0,.33-.08,1.54,1.54,0,0,0,.63-.43A1.46,1.46,0,0,0,124,204a1.68,1.68,0,0,0,.09-.32l12.27-66.47,10.9,16.35a1.51,1.51,0,0,0,1.4.66,1.5,1.5,0,0,0,1.23-.93L163,121.05l10.27,12.13a1.49,1.49,0,0,0,2.48-.3l8.69-17.37,9.32,11.19a1.5,1.5,0,0,0,2.54-.39L208.2,97.43,223.88,118a1.53,1.53,0,0,0,1.35.58,1.49,1.49,0,0,0,1.2-.85L236.82,96l9.52,23.8a1.5,1.5,0,0,0,2.39.57l17.66-15.7,8,26.87a1.5,1.5,0,0,0,2.5.64l6.86-6.86,2.51,8.38a1.51,1.51,0,0,0,1.4,1.07h0a1.5,1.5,0,0,0,1.41-1l7.67-21.3,4.54,31.79a1.5,1.5,0,0,0,2.88.35l5-12.52,8.38,23.26a1.5,1.5,0,0,0,2.64.35l7.33-10.59,1.81,21.73A1.52,1.52,0,0,0,330,168a1.5,1.5,0,0,0,1.35.11l14.35-5.74,1.94,17.47a1.5,1.5,0,0,0,2.66.77l6-7.45v55.07a1.5,1.5,0,0,0,2.87.62l10.18-22.21,5.36,18.76a1.51,1.51,0,0,0,1.12,1.06,1.52,1.52,0,0,0,1.46-.5l9.65-11.4,3.9,32.19a1.5,1.5,0,0,0,2.85.45l10.09-21.86v63.31a1.5,1.5,0,0,0,2.65,1l9.56-11.3,4,42.84a1.5,1.5,0,0,0,1,1.26,1.51,1.51,0,0,0,1.55-.28l8.56-7.71,1.34,14.72-5.09,1,11,19.12,2.48-21.73Z" style="fill:#263238"></path></g><g id="freepik--Floor--inject-3"><path d="M425.88,379.73s1.52-1.92,1.61-2.06c.93-1.55,1.83-5.1.49-6.63a2.39,2.39,0,0,0-3.57,0,5,5,0,0,0-.83,4.14C423.85,376.79,425.88,379.72,425.88,379.73Z" style="fill:#263238"></path><path d="M397.46,367.33s.22-2.44.21-2.6c-.08-1.81-1.29-5.26-3.24-5.8a2.4,2.4,0,0,0-3,2,5,5,0,0,0,1.6,3.91C394.15,366,397.46,367.33,397.46,367.33Z" style="fill:#263238"></path><path d="M142,388.09s.31-1.75.32-1.87c.06-1.3-.58-3.87-1.95-4.39a1.74,1.74,0,0,0-2.27,1.25A3.69,3.69,0,0,0,139,386,12.65,12.65,0,0,0,142,388.09Z" style="fill:#263238"></path><path d="M116,389.85a12.58,12.58,0,0,0,3.66.07s-.7-1.63-.76-1.73c-.67-1.12-2.63-2.91-4.06-2.59a1.74,1.74,0,0,0-1.19,2.3A3.66,3.66,0,0,0,116,389.85Z" style="fill:#263238"></path><path d="M446.38,426.32l-18.67-8.92-25.9-3.24-.75-1.55.83-.85c.32.22,2.94,2,4.41,2.3a5,5,0,0,0,4.15-.78,2.39,2.39,0,0,0,.08-3.57c-1.51-1.35-5.07-.5-6.63.42-.09.06-1,.75-1.61,1.21l.91-1c.61-.64,1.2-1.31,1.84-2l.89-1.08c.31-.35.59-.77.89-1.15.67-.91,1.31-1.86,1.93-2.83a15.8,15.8,0,0,0,3.9,2.84,5,5,0,0,0,4.22-.14,2.4,2.4,0,0,0,.63-3.52c-1.29-1.56-4.94-1.26-6.62-.59-.11.05-1.26.66-1.89,1,.37-.58.74-1.17,1.09-1.78,1-1.75,2-3.55,3-5.35l.92-1.64c.2.19,2.59,2.46,4,3a5,5,0,0,0,4.22-.14,2.4,2.4,0,0,0,.63-3.52c-1.29-1.56-4.94-1.26-6.62-.59-.13.05-1.79.94-2.2,1.19.67-1.2,1.36-2.4,2.07-3.54a41.22,41.22,0,0,1,3.19-4.47c.09.09,2.57,2.47,4,3a5.05,5.05,0,0,0,4.22-.14,2.4,2.4,0,0,0,.63-3.52c-1.29-1.57-4.94-1.26-6.62-.59-.13.05-1.92,1-2.23,1.21.07-.08.13-.18.2-.26a31.35,31.35,0,0,1,3.94-3.82c.78-.65,1.56-1.23,2.34-1.77a16,16,0,0,0,3.62,3.32,5,5,0,0,0,4.21.32,2.41,2.41,0,0,0,1-3.43c-1.12-1.7-4.77-1.79-6.52-1.31-.1,0-1,.4-1.71.68.35-.24.71-.5,1.05-.72,1.29-.84,2.51-1.53,3.6-2.14l1.73-.9a16,16,0,0,0,4.72,1.27,5,5,0,0,0,3.89-1.65,2.4,2.4,0,0,0-.68-3.51c-1.77-1-5.06.61-6.39,1.84-.12.1-1.72,2-1.69,2l0,0c-.52.25-1.08.52-1.68.83-1.1.58-2.35,1.25-3.65,2.06a43.47,43.47,0,0,0-4.09,2.84,30.57,30.57,0,0,0-4.08,3.79.1.1,0,0,0,0,0c.24-.54.87-2.08.9-2.21.5-1.74.42-5.4-1.27-6.52a2.4,2.4,0,0,0-3.43,1,5,5,0,0,0,.29,4.21c.65,1.38,3.17,3.53,3.37,3.7a42.2,42.2,0,0,0-3.39,4.54c-.61.92-1.19,1.87-1.76,2.83.2-.48.37-.9.38-1,.5-1.74.42-5.4-1.27-6.52a2.4,2.4,0,0,0-3.43,1,5,5,0,0,0,.29,4.21,16.38,16.38,0,0,0,3.26,3.61c-.21.37-.43.73-.65,1.1-1,1.78-2,3.56-3.08,5.27-.37.6-.76,1.18-1.14,1.77l.33-.84c.49-1.74.42-5.4-1.27-6.53a2.41,2.41,0,0,0-3.44,1,5.06,5.06,0,0,0,.3,4.21,15.05,15.05,0,0,0,3.16,3.52c-.42.59-.83,1.17-1.25,1.72-.3.37-.56.74-.88,1.1l-.92,1.05c-.61.65-1.24,1.33-1.85,1.95l-1.24,1.25c.38-.6,1.08-1.78,1.13-1.89a9.3,9.3,0,0,0,.64-4.66,3,3,0,0,0,.17-.5,2.4,2.4,0,0,0-1.9-3c-1.56-.22-3.41,1.34-4.53,2.81l-.73-1.5.09-.79c.06-.47.06-1,.1-1.45.06-1.13.07-2.27.05-3.43a15.7,15.7,0,0,0,4.82.22,5,5,0,0,0,3.44-2.45,2.4,2.4,0,0,0-1.41-3.28c-1.95-.59-4.82,1.68-5.85,3.17-.07.09-.69,1.24-1,1.88,0-.69,0-1.39-.07-2.09-.11-2-.29-4.07-.46-6.11-.06-.62-.1-1.25-.15-1.87.27,0,3.52.63,5,.25a5.07,5.07,0,0,0,3.45-2.45,2.4,2.4,0,0,0-1.42-3.28c-1.94-.59-4.82,1.68-5.85,3.16-.08.12-1,1.77-1.18,2.21-.1-1.38-.19-2.75-.23-4.1a44.91,44.91,0,0,1,.19-5.48c.13,0,3.51.64,5,.25A5,5,0,0,0,403.9,374a2.4,2.4,0,0,0-1.42-3.28c-1.94-.59-4.81,1.68-5.85,3.17-.08.11-1,1.9-1.19,2.23,0-.1,0-.21,0-.32a31.47,31.47,0,0,1,1.18-5.37c.29-1,.63-1.88,1-2.76a16.11,16.11,0,0,0,4.85.77,5,5,0,0,0,3.69-2,2.4,2.4,0,0,0-1-3.42c-1.86-.8-5,1.14-6.16,2.5-.06.08-.64.9-1.05,1.51.16-.39.32-.8.49-1.18.6-1.41,1.24-2.66,1.82-3.77.33-.62.65-1.18.95-1.7a15.88,15.88,0,0,0,4.63-1.55,5,5,0,0,0,2.33-3.52,2.4,2.4,0,0,0-2.51-2.55c-2,.15-3.88,3.3-4.31,5.06,0,.15-.34,2.6-.3,2.59h0c-.3.49-.61,1-.94,1.62-.61,1.09-1.28,2.34-1.92,3.74a41.94,41.94,0,0,0-1.84,4.62,30.79,30.79,0,0,0-1.31,5.41.17.17,0,0,0,0,.07c-.1-.59-.42-2.22-.46-2.34-.55-1.73-2.63-4.74-4.66-4.74a2.39,2.39,0,0,0-2.32,2.71,5,5,0,0,0,2.57,3.36c1.3.79,4.59,1.19,4.85,1.22a42.26,42.26,0,0,0-.32,5.67c0,1.1,0,2.21.09,3.32-.1-.5-.19-.95-.21-1-.55-1.73-2.63-4.74-4.66-4.75a2.41,2.41,0,0,0-2.32,2.72,5,5,0,0,0,2.57,3.35,15.59,15.59,0,0,0,4.7,1.21c0,.43.05.86.08,1.28.12,2.05.26,4.09.33,6.1,0,.71,0,1.4,0,2.1-.09-.45-.17-.82-.18-.88-.55-1.72-2.63-4.73-4.66-4.74a2.4,2.4,0,0,0-2.32,2.72c0,.11,0,.21.06.32l-9.39-2.63-5.93-9.17H356.66L339.4,368.16l-28.06,11.33L307,385.42,294.08,387l-8.63,3.24-10.25,5.93L249.3,393l-10.25-2.16-20.5,4.32-25.9-8.1-13.49-1.62-8.09,6.48-8.63,10.25L145,408.37a2.09,2.09,0,0,0,.33-.45,1.73,1.73,0,0,0-.8-2.46c-1.36-.55-3.58.89-4.43,1.9-.05.06-.57.85-.85,1.29,0-.5.07-1,.08-1.51.05-1.47.06-2.95.07-4.43,0-.46,0-.91,0-1.36a12,12,0,0,0,3.58.5,3.6,3.6,0,0,0,2.64-1.53,1.73,1.73,0,0,0-.8-2.46c-1.36-.55-3.58.89-4.43,1.89-.06.08-.81,1.22-1,1.51,0-1,0-2,.11-3a29.1,29.1,0,0,1,.49-3.93,12.48,12.48,0,0,0,3.61.51,3.65,3.65,0,0,0,2.64-1.54,1.75,1.75,0,0,0-.81-2.46c-1.36-.55-3.58.9-4.42,1.9-.07.08-.88,1.3-1,1.53,0-.07,0-.15,0-.23a22.41,22.41,0,0,1,1.2-3.79c.28-.68.58-1.32.88-1.93a11.79,11.79,0,0,0,3.45.88,3.61,3.61,0,0,0,2.79-1.24,1.73,1.73,0,0,0-.53-2.53c-1.29-.7-3.65.49-4.6,1.4-.05.05-.52.6-.86,1l.43-.82c.53-1,1.07-1.84,1.56-2.6.28-.43.55-.81.8-1.17a11.62,11.62,0,0,0,3.44-.8,3.63,3.63,0,0,0,1.91-2.39,1.74,1.74,0,0,0-1.64-2c-1.47,0-3,2.12-3.44,3.36,0,.11-.42,1.85-.39,1.85h0c-.25.34-.51.7-.79,1.11-.5.75-1.07,1.6-1.62,2.57a29.94,29.94,0,0,0-1.64,3.21,23.35,23.35,0,0,0-1.3,3.81.09.09,0,0,1,0,.05c0-.43-.15-1.63-.17-1.72-.29-1.28-1.59-3.59-3.05-3.72a1.73,1.73,0,0,0-1.85,1.8,3.64,3.64,0,0,0,1.63,2.59,12.13,12.13,0,0,0,3.41,1.2,31.25,31.25,0,0,0-.6,4.06c-.07.8-.12,1.6-.15,2.41,0-.37-.08-.7-.09-.75-.28-1.28-1.58-3.59-3.05-3.72a1.74,1.74,0,0,0-1.85,1.8,3.65,3.65,0,0,0,1.64,2.59,11.56,11.56,0,0,0,3.31,1.18c0,.31,0,.62,0,.93,0,1.48-.08,3-.16,4.41,0,.51-.07,1-.12,1.52,0-.33-.07-.61-.07-.65-.29-1.28-1.59-3.59-3.05-3.72a1.73,1.73,0,0,0-1.85,1.8,3.64,3.64,0,0,0,1.63,2.59,11.15,11.15,0,0,0,3.22,1.16c0,.31-.09.62-.13.93l-2.48.88a2.25,2.25,0,0,0-.06-.36,1.74,1.74,0,0,0-2.25-1.28c-1,.37-1.64,1.85-1.89,3.13l-.72.26c0-.12-.09-.23-.13-.35-.13-.31-.25-.62-.38-.94s-.29-.64-.43-1c-.35-.74-.74-1.47-1.15-2.2a11.63,11.63,0,0,0,3.16-1.51,3.64,3.64,0,0,0,1.35-2.74,1.74,1.74,0,0,0-2-1.61c-1.44.29-2.49,2.72-2.64,4,0,.08,0,1,0,1.55l-.76-1.31c-.77-1.25-1.59-2.49-2.39-3.73l-.74-1.15a11.88,11.88,0,0,0,3.27-1.55,3.63,3.63,0,0,0,1.35-2.74,1.73,1.73,0,0,0-2-1.6c-1.44.29-2.5,2.72-2.65,4,0,.1,0,1.46,0,1.81-.54-.85-1.07-1.69-1.55-2.54a28.66,28.66,0,0,1-1.76-3.56,12.12,12.12,0,0,0,3.29-1.56,3.63,3.63,0,0,0,1.35-2.74,1.73,1.73,0,0,0-2-1.6c-1.44.29-2.49,2.72-2.64,4,0,.1,0,1.57,0,1.83l-.1-.21a22.14,22.14,0,0,1-1.09-3.83c-.14-.72-.24-1.41-.32-2.09a11.92,11.92,0,0,0,3.35-1.17,3.62,3.62,0,0,0,1.65-2.58,1.73,1.73,0,0,0-1.84-1.81c-1.46.12-2.78,2.42-3.07,3.7,0,.07-.1.8-.15,1.32,0-.3-.07-.62-.1-.91-.09-1.11-.12-2.13-.13-3,0-.51,0-1,0-1.41a11.78,11.78,0,0,0,2.43-2.58,3.62,3.62,0,0,0,.27-3,1.74,1.74,0,0,0-2.47-.77c-1.24.79-1.34,3.44-1,4.71,0,.11.67,1.77.69,1.75l0,0c0,.42,0,.87,0,1.36,0,.9,0,1.92.06,3a30.49,30.49,0,0,0,.41,3.58,22.61,22.61,0,0,0,1,3.89s0,0,0,.05c-.27-.34-1-1.27-1.1-1.34-.94-.91-3.3-2.11-4.6-1.42a1.74,1.74,0,0,0-.54,2.53,3.61,3.61,0,0,0,2.78,1.25,12.14,12.14,0,0,0,3.52-.88,29,29,0,0,0,1.73,3.72c.38.71.79,1.4,1.2,2.09l-.48-.57c-1-.91-3.3-2.12-4.6-1.43a1.75,1.75,0,0,0-.55,2.53,3.62,3.62,0,0,0,2.79,1.25,11.25,11.25,0,0,0,3.42-.84l.48.8c.78,1.26,1.57,2.51,2.3,3.77.26.44.5.88.74,1.33-.21-.26-.39-.47-.42-.5-1-.91-3.3-2.12-4.6-1.42a1.74,1.74,0,0,0-.55,2.52,3.66,3.66,0,0,0,2.79,1.26,11,11,0,0,0,3.32-.81c.24.46.47.93.67,1.39.14.31.29.61.4.93l.36,1c0,.14.09.28.14.42l-.77.46c-1-.86-2.49-1.66-3.53-1.29a1.74,1.74,0,0,0-.93,2.42,2.54,2.54,0,0,0,.91,1l-6.08,3.63-14,1.61-18.34,4.86,6.78.94,42.31-1.48-8.63,6.51,7,2.16-1.62,4.32h7.55l5.39-.54,2.7-3.24,21-.54H182.4l8.54-7.74,12-.35,26.44-1.08,20-1.6,17.25.52h36.14l25.9-1.08,5.39-5.94,20.34,10.94,34.53,3.23,23.2,2.16.53-5.39-27.16-1.81Zm-45.5-15.16-.36.35-1-2.1C400.12,410.27,400.75,411,400.88,411.16Zm-5.63-13.49c0,.72,0,1.43-.09,2.12,0,.21,0,.42-.05.63l-1.47-3C394.31,397.54,394.91,397.63,395.25,397.67ZM139.19,409a15.61,15.61,0,0,0,2.67.49l-2.83,1C139.08,410,139.15,409.49,139.19,409Z" style="fill:#263238"></path><polygon points="320.3 426.38 314.72 424.89 310.26 426.75 311 431.59 315.84 431.96 319.18 430.1 320.3 426.38" style="fill:#263238"></polygon><polygon points="276.42 441.26 279.39 442.75 281.99 441.26 282.37 437.91 276.79 436.8 276.42 441.26" style="fill:#263238"></polygon><polygon points="271.58 425.27 273.07 429.36 274.93 429.36 276.79 425.27 271.58 425.27" style="fill:#263238"></polygon><path d="M322.9,438.28l-3.72,2.61.75,2.6,2.23.37h3.35a4.05,4.05,0,0,0,.74-1.49,9.5,9.5,0,0,0,0-3.34Z" style="fill:#263238"></path><path d="M149.23,437.91l-3.72,2.61.74,2.6,2.23.37h3.35a4.05,4.05,0,0,0,.74-1.49,9.5,9.5,0,0,0,0-3.34Z" style="fill:#263238"></path><path d="M177.86,436.42,174.14,439l.75,2.6,2.23.37h3.35a4,4,0,0,0,.74-1.48,9.55,9.55,0,0,0,0-3.35Z" style="fill:#263238"></path><path d="M330.83,426.85l-2,1.39.4,1.38,1.18.2h1.78a2.19,2.19,0,0,0,.4-.79,5,5,0,0,0,0-1.78Z" style="fill:#263238"></path><path d="M304,442.06l-2,1.38.4,1.39,1.18.19h1.78a2.06,2.06,0,0,0,.4-.79,5.19,5.19,0,0,0,0-1.77Z" style="fill:#263238"></path><path d="M165.68,434.77l-2,1.39.39,1.38,1.19.2h1.77a2.19,2.19,0,0,0,.4-.79,5,5,0,0,0,0-1.78Z" style="fill:#263238"></path></g><g id="freepik--Bear--inject-3"><path d="M323.23,365.27c2.67-5.79,22.28-22.72,28.07-41.43S358,290,354,267.7s-16.48-37.42-24.5-46.78-31.19-28.07-36.09-33-11.14-9.36-26.74-24.95-21.5-24.1-45.56-20.09S175,166.52,173.18,173.2s-3.66,12.08-4.55,20.54-7.58,25.4-7.58,25.4-.44,22.27.89,28.51,2.23,18.27,2.23,18.27S148.58,312.25,153,322.06a47.21,47.21,0,0,0,10.69,15.15l2.68-3.12,4,8.46,3.12-1.78s-.45,1.34,7.12,12.47,11.59,20.95,11.59,22.73v5.79l-2.67,8c-1.77,3.2-13.1,8.59-12.56,12.91a35.7,35.7,0,0,0,1.08,5.93h32.37a14.51,14.51,0,0,0,8.09-1.62c3.78-2.15,4-10.24,4.43-13.21a1.88,1.88,0,0,0,0-.58V378.64c0-4.9,4-20.05,4-20.05s6.68,11.14,7.58,13.37.44,11.58.44,13.36-.89,7.58-.89,7.58a15.88,15.88,0,0,0-6.4,6.55c-2.7,4.86,2.7,8.09,2.7,8.09h29.13a6.93,6.93,0,0,0,6.48-5.39c.75-3-.07-7-.64-9.23a62,62,0,0,1,4.82-13.83c3.56-7.13,10.05,1.06,10.05,1.06s.2-5.52,1.53-1.06S288,392,288,392s2.94,3.61-.42,4.2c-13,2.32-8.66,10.31-8.66,10.31h41s6-6,7-9.77-1.62-9.17-2.16-10.79a58.67,58.67,0,0,0-3.16-6.08C321.45,376.09,321.37,369.29,323.23,365.27Z" style="fill:#bdbdbd;stroke:#263238;stroke-linecap:round;stroke-linejoin:round"></path><path d="M301.62,324a13.46,13.46,0,0,1-1,3.35" style="fill:none;stroke:#263238;stroke-linecap:round;stroke-linejoin:round"></path><path d="M349.61,287.45s.12,2.42.27,5.37" style="fill:none;stroke:#263238;stroke-linecap:round;stroke-linejoin:round"></path><path d="M312.69,279.06l-.33,5.71a30.12,30.12,0,0,1,.67,5.37,70.65,70.65,0,0,1-.67,7l-2.35,5-.34-2-.33,4-1.35,3-1.34,3.36-1.68-3-.33,5L301,311.28l.67,8.05v1.34" style="fill:none;stroke:#263238;stroke-linecap:round;stroke-linejoin:round"></path><path d="M350.12,298.2c.09,2.07.16,3.86.16,4.69v7.38l-3,7.72-1.35-2.35s-2,7.05-2.68,8.39-2,4.36-2,4.36a3.77,3.77,0,0,1-1.35,3.36,50.72,50.72,0,0,0-4.36,4.36" style="fill:none;stroke:#263238;stroke-linecap:round;stroke-linejoin:round"></path><path d="M346.4,332.75c-3.57,4-8.91,9.8-13.37,11.58s1.34-8,1.34-8-8.47,4.46-12,5.8a88.93,88.93,0,0,1-10.7,2.67s5.35-11.58,6.24-14.7,1.34-16,1.78-17.83a84.48,84.48,0,0,1,2.68-9.35c1.33-3.57,1.33-9.36.89-12l-3.07-2.2a65,65,0,0,1-.05,10.22c-.89,9.36-6.24,12.92-8,21.83-.3,1.48-.49,2.51-.62,3.21-3,6.87-16,36.72-20.32,42.24-2.9,3.69-6.88,8.3-9.66,11.46l-.19.15a7,7,0,0,1,.49,1.31C283.13,383.54,288,392,288,392s2.94,3.61-.42,4.2c-13,2.32-8.66,10.31-8.66,10.31h41s6-6,7-9.77-1.62-9.17-2.16-10.79a58.67,58.67,0,0,0-3.16-6.08c0-.61-.07-1.3-.09-2h0v-.07c0-.44,0-.91,0-1.39v-.14c0-.49,0-1,0-1.49v0c0-.49,0-1,.06-1.5,0-.09,0-.18,0-.26,0-.5.07-1,.12-1.48l0-.24c.05-.5.12-1,.19-1.48v-.05c.07-.48.17-1,.27-1.42l.06-.26c.1-.45.22-.88.35-1.3a2,2,0,0,1,.08-.22,11.2,11.2,0,0,1,.47-1.23c.08-.17.18-.35.28-.55l.13-.2.25-.41.17-.25.28-.41.22-.3c.1-.14.2-.28.32-.43s.15-.21.24-.32l.37-.47.25-.32c.14-.18.29-.35.44-.53a3.76,3.76,0,0,1,.25-.31l.52-.63.22-.26.67-.79L328,359c1.58-1.85,3.44-4,5.42-6.29l.15-.18c.26-.31.53-.64.81-1l.23-.27.78-.94.27-.33c.25-.31.51-.62.76-.94.1-.11.19-.23.29-.35l.77-1,.26-.33.8-1,.16-.21c1.24-1.6,2.48-3.26,3.67-5l.26-.37c.22-.33.45-.66.67-1l.34-.5c.21-.31.41-.63.62-.95l.36-.57.59-.94.36-.6.56-.94.36-.62c.18-.31.36-.63.53-.95l.34-.62.51-1c.11-.2.21-.41.31-.61s.33-.66.49-1c.09-.18.18-.37.26-.56l.49-1.06h0A36.46,36.46,0,0,1,346.4,332.75Z" style="fill:#263238;stroke:#263238;stroke-linecap:round;stroke-linejoin:round"></path><path d="M223,393.79a1.88,1.88,0,0,0,0-.58V378.64c0-4.9,4-20.05,4-20.05s6.68,11.14,7.58,13.37.44,11.58.44,13.36c0,.15,0,.33,0,.53a.76.76,0,0,1,0,.15c0,.2,0,.41,0,.64v0c0,.25-.05.51-.08.79,0,.05,0,.1,0,.16l-.09.82h0c-.27,2.15-.62,4.45-.62,4.45a15.88,15.88,0,0,0-6.4,6.55c-2.7,4.86,2.7,8.09,2.7,8.09h29.13a6.93,6.93,0,0,0,6.48-5.39c.75-3-.07-7-.64-9.23a63.14,63.14,0,0,1,2.9-9.5l0-.07c.26-.68.55-1.36.85-2.06a.36.36,0,0,0,0-.09c.31-.7.64-1.41,1-2.11s.64-1.26,1-1.93L269.32,376c-4.9-3.12-14.71-1.78-14.71-1.78s.9-2.68,2.68-8.92-1.34-16.48-2.68-27.17-1.78-8.47-1.78-8.47-4.45-9.36-6.23-17.38,0-17.82,0-17.82,6.23-13.36,8-16l-9.8,10.7,4.9-15.15,7.13-18.71-11.58,8.91,4.9-19.16s-12.92,5.79-15.15,12.47a16.87,16.87,0,0,1-7.57,9.36l4.45-12.48-4.9,5.35,3.57-14.7-30.75-1.34,4,12a75.27,75.27,0,0,1,1.79,8.91l-20.05-13.36L195.8,261l-11.46-6.15s.32,9.27,1.22,11.05,3.56,6.24,4,8.91,2.22,6.24,5.34,11.14,10.7,18.27,10.7,18.27l-16.49-13.82L172.64,272.6s8.46,17.38,10.24,21.83,8,23.17,8,23.17-8-1.34-9.35-.44-8,17.37-3.12,27.62a64.49,64.49,0,0,1,3.86,10.94,116.65,116.65,0,0,1,6,10.35l0,.07c.23.45.44.88.65,1.31l.12.24.53,1.12c0,.11.11.22.15.33.16.33.31.65.45,1,0,.13.11.25.16.38s.25.56.36.82.11.28.17.41l.28.69c.06.15.11.29.16.43s.15.38.21.56.1.29.15.42.1.31.15.44.08.27.12.4.07.23.09.32.06.26.09.37,0,.15,0,.21a2.38,2.38,0,0,1,.05.41v5.79l-2.67,8c-1.77,3.2-13.1,8.59-12.56,12.91a35.7,35.7,0,0,0,1.08,5.93h32.37a14.51,14.51,0,0,0,8.09-1.62C222.33,404.85,222.56,396.76,223,393.79Z" style="fill:#263238;stroke:#263238;stroke-linecap:round;stroke-linejoin:round"></path><path d="M280.41,378.5l-.94.76c.49.52.79.89.79.89A16.11,16.11,0,0,1,280.41,378.5Z" style="fill:#263238;stroke:#263238;stroke-linecap:round;stroke-linejoin:round"></path><path d="M318.6,276.73c.27,1.37.51,2.76.72,4.14.4,2.64.68,5.27.84,7.8" style="fill:none;stroke:#263238;stroke-linecap:round;stroke-linejoin:round"></path><path d="M294.65,224.05c.89,1.63,1.8,3.55,2.74,5.78,3.56,8.47,12.92,24.5,17.37,34.31a52.63,52.63,0,0,1,3.07,9.14" style="fill:none;stroke:#263238;stroke-linecap:round;stroke-linejoin:round"></path><path d="M287.58,216.91c1.56.22,3.12,1.34,4.74,3.45" style="fill:none;stroke:#263238;stroke-linecap:round;stroke-linejoin:round"></path><path d="M237.54,254.6l1.58-3.17s8.71-3.28,11.87-8,6.58-15.15,6.58-15.15l2.5,3.8,3.82-7-.52-9v6.32s4.74-3.69,5.27-6.32,1.58-17.4-1.06-22.67-13.17-17.91-13.17-17.91l.52-2.11s5.27-8.43,3.69-14.76-10-5.79-12.64-4.21-10.54,8.43-10.54,8.43-12.13-4.74-29.52-2.64-25.29,5.27-25.29,5.27-7.38-6.32-13.18-4.74-10.54,7.91-9,13.7S168,185.56,168,185.56s-7.38,9-9.49,18.44,1.06,15.29,1.06,15.29l1.58-2.64s-.53,8.43-.53,10,3.69,11.06,3.69,11.06l3.16-5.79s3.17,8.43,4.22,10-1.58,3.16,6.32,6.32a84.32,84.32,0,0,1,15.81,9,37.55,37.55,0,0,0,6.64,5.69c3.54,2.25,12.87,7.08,12.87,7.08l1.61-2.9,5.47,5.8s3.54-5.15,4.51-6.12,5.47-7.4,5.47-7.4l-.65,5.47Z" style="fill:#bdbdbd;stroke:#263238;stroke-linecap:round;stroke-linejoin:round"></path><path d="M195.11,235s5.22,11.35,5.89,12.69,4.67,8,4.67,8l-3.34-2.34a81.82,81.82,0,0,0,5,8C209,263.33,220,274,220,274l4.9-7.22,3.77,1.22,3.33-7.33,2-12h1.67L235.6,232l-.93-1.95Z" style="fill:#263238;stroke:#263238;stroke-linecap:round;stroke-linejoin:round"></path><polyline points="254.97 223.02 254.97 230.74 252.96 235.77 251.95 237.78 250.27 236.11 249.94 237.78 248.26 241.14 246.25 243.82 244.9 245.17 243.9 243.49 240.88 245.84 239.2 247.18" style="fill:none;stroke:#263238;stroke-linecap:round;stroke-linejoin:round"></polyline><path d="M170.74,200.53s-3.69,6.05-3.69,10.07v6l2.35-1.34s.67,3,1,4,2.35,5.37,2.35,5.37l1.35,1,2-.33,2,4,3.36,3,2,1h1.68" style="fill:none;stroke:#263238;stroke-linecap:round;stroke-linejoin:round"></path><path d="M178.23,169.88a14.31,14.31,0,0,0-7.84-3.66c-4.7-.52-8.88,4.7-8.36,6.27s1.57,4.71,3.66,5.23l2.09.52,3.14,1Z" style="fill:#263238;stroke:#263238;stroke-linecap:round;stroke-linejoin:round"></path><path d="M241.48,164.65a8.93,8.93,0,0,1,5.75-6.79c5.22-2.09,8.88-1.57,8.88,3.66s-4.18,13.59-4.18,13.59Z" style="fill:#263238;stroke:#263238;stroke-linecap:round;stroke-linejoin:round"></path><path d="M203.82,193s-5.68,2.65-6.06,6.43-4.92,28.76-2.65,35.57,16.65,27.24,20.44,28,6.81-1.13,9.45-6.43,9.84-18.92,10.6-24.6-6.43-29.89-8.32-34.81-7.57-7.19-11-7.19S203.82,193,203.82,193Z" style="fill:#fff;stroke:#263238;stroke-linecap:round;stroke-linejoin:round"></path><path d="M220.46,194c0,2.3-3.72,7.57-8.32,7.57s-8.32-5.27-8.32-7.57,3.72-4.16,8.32-4.16S220.46,191.72,220.46,194Z" style="fill:#263238;stroke:#263238;stroke-linecap:round;stroke-linejoin:round"></path><path d="M222.83,207.71c-3.82-2.72-9.17-2.83-14.1-1.23a12.39,12.39,0,0,0-8.7,12.23c0,5.3-2.65,9.84-1.51,14s8.7,17.41,11.35,21.19,6.81,7.19,11,4.92,11.35-25,11.73-27.24-5.5-18.06-5.59-18.3A11.58,11.58,0,0,0,222.83,207.71Z" style="fill:#263238;stroke:#263238;stroke-linecap:round;stroke-linejoin:round"></path><path d="M222.83,207.71c-3.82-2.72-9.17-2.83-14.1-1.23a12.31,12.31,0,0,0-6.64,5l.12.34,3.62,5.68,2.06-8a19.63,19.63,0,0,1,3.88-.77c1.29,0,6.45.51,6.45.51l2.07,7,4.61-6.55A10.92,10.92,0,0,0,222.83,207.71Z" style="fill:#fff;stroke:#263238;stroke-linecap:round;stroke-linejoin:round"></path><path d="M218.48,220.61c-5.42-1-10.59.51-14.46,8.52a16.74,16.74,0,0,0,.26,15l-.09.35c2.2,3.94,4.46,7.7,5.68,9.44,2.65,3.78,6.81,7.19,11,4.92,1.79-1,4.14-5.73,6.27-11,.3-2.81,1.14-11.18.93-14.8C227.78,228.61,223.91,221.64,218.48,220.61Z" style="fill:#949494;stroke:#263238;stroke-linecap:round;stroke-linejoin:round"></path><path d="M222.1,248.5,220.55,255h-6.46l-3.1-4.9-1.14,3.82,0,0c2.65,3.78,6.81,7.19,11,4.92,1-.56,2.22-2.34,3.45-4.73Z" style="fill:#fff;stroke:#263238;stroke-linecap:round;stroke-linejoin:round"></path><path d="M227.12,190.46a1.8,1.8,0,1,1-1.79-1.79A1.8,1.8,0,0,1,227.12,190.46Z" style="fill:#263238;stroke:#263238;stroke-linecap:round;stroke-linejoin:round"></path><path d="M200.2,193a1.8,1.8,0,1,1-1.79-1.8A1.79,1.79,0,0,1,200.2,193Z" style="fill:#263238;stroke:#263238;stroke-linecap:round;stroke-linejoin:round"></path><path d="M204.21,192.2l-2,.28s-2.11-1.89-2.75-2a20.1,20.1,0,0,0-3.14-.4c-1.37,0-5.11.2-5.11.2l5.82,1.92a28.73,28.73,0,0,0,4,1l3.2,0Z" style="fill:#263238"></path><path d="M219.52,191l2-.08s1.74-2.24,2.35-2.42a21.34,21.34,0,0,1,3-1c1.36-.24,5.06-.71,5.06-.71l-5.37,2.92a29,29,0,0,1-3.76,1.72l-3.15.54Z" style="fill:#263238"></path><path d="M184.73,413a10.84,10.84,0,0,0-2,7.64c.53,4.58-.15,16.13-.15,16.13l3.85,5-7.76,2.2-.17,17.27,8,6.29,15.29-5.83s15.17,9.05,33.29,10.41,29.89-10,32.38-13.36a16.61,16.61,0,0,0,2.94-5.43l-.59-23.44-1.9.57-.88-6.71-9.76-10.5s2.49-1.36,8.61-.68,12.55,8,12.55,8L277.94,435,298,443.79s4.41-5.52,5.75-10.67,1.57-18.52,1.57-18.52l-.24-4.92,3.69-1.82.61-16.06-21.5-.29-32.15-4.08-31.26,13.81s-.67,14,.68,19.93,10.42,19,10.65,19.93.22,1.81-4.31,1.13-10-2.26-12.68-3.85a64.79,64.79,0,0,1-6.56-4.75l-1.59-2,1.46-17.91Z" style="fill:#263238"></path><path d="M212.6,413.68c-2.75,2.43-4.28,5-4.56,7.64l-6.33,1.59-7.22-2.29-4.89.54-5.16.66c-1.23-6.89,1.66-13.37,8.62-19.26Z" style="fill:#92E3A9"></path><path d="M308.34,391.64l-11,5.46-6.51,1.19-6.41,1.09,5.75,4.42,4.63.49,3.69.91,4.27.18c4.13,7.95,2.78,15.61-4,22.77L279,418.91c5.25-5.4,4.71-11-1.63-16.59-6.89-6.1-13.36-7.71-19.23-4.8-2.38,1.18-3.74,2.77-4,4.75s1.17,5.15,4.53,9.72c3.05,4.19,5.51,7.88,7.32,11l-1.93-.07-10.1,5.93-6,1.65-7.15,2.07c-.42-2.35-2.34-5.83-5.85-10.59-7.84-10.88-10.94-19-9.22-24.09s5.86-9.3,12.29-12.48A47,47,0,0,1,263.23,381a50.05,50.05,0,0,1,24.68,8.7l.33.24,11.62-5.76Z" style="fill:#92E3A9"></path><path d="M269.36,430.32a15.38,15.38,0,0,1-1.19,11.09c-2,4.16-5.72,7.61-11,10.24-7.35,3.64-16.16,5.14-26.18,4.47s-19.8-4.48-29.09-11.29l-.33-.25-13.92,6.9-8.49-7.5,13.92-6.9-.26-.28a37.89,37.89,0,0,1-7.06-10.61l6.57-.18,9.83,1,7-.27a22.57,22.57,0,0,0,5.42,6.59c3.94,3.49,7.93,5.65,11.88,6.42a16,16,0,0,0,10.29-.94c2.75-1.37,4.12-3.19,4.09-5.41l9-.31,7.58-2.83,3.1-1.11,4.54,1.21Z" style="fill:#92E3A9"></path><path d="M281.35,383.54s-4-9.8-13.81-12-15.15-.44-19.16,4-4.46,7.58-2.23,9.36a13.58,13.58,0,0,0,3.56,2.23l3.57-3.12a4.43,4.43,0,0,0,2.23,3.56c2.22,1.34,4,2.23,4,2.23l6.23-3.12,1.79,4,5.34-.89,4-1.78s-4.45,1.78,0,2.22S281.35,383.54,281.35,383.54Z" style="fill:#263238;stroke:#263238;stroke-linecap:round;stroke-linejoin:round"></path></g></svg>