<svg xmlns="http://www.w3.org/2000/svg" xmlns:xlink="http://www.w3.org/1999/xlink" viewBox="0 0 500 500"><defs><clipPath id="freepik--clip-path--inject-15"><path d="M411.75,319.53c.25.22,1,9.84,1,9.84s5.13,10.13,5.07,25.63,4.93,94.89,4.93,94.89H300s8.53-59.52,20.63-89.64c0,0,.37-24.72,7-31.61,0,0-2.88-10.14,3-11.39S411.75,319.53,411.75,319.53Z" style="fill:#999;stroke:#263238;stroke-linecap:round;stroke-linejoin:round"></path></clipPath><clipPath id="freepik--clip-path-2--inject-15"><path d="M349.05,152.69s-2.13-6.75,2.44-10.09,4.26,16.8,4.26,16.8l4.36,2.44s6.29-16.64,3.25-28.82S348,112.21,331,116.81c-22.81,6.16-17.68,24.84-17.68,24.84s1-5.28,2.08-5,4.7,3.75,22.39-2.34c0,0,2,1.73,1.55,6s7.14,8.07,8.32,15.18Z" style="fill:#999;stroke:#263238;stroke-linecap:round;stroke-linejoin:round"></path></clipPath></defs><g id="freepik--background-simple--inject-15"><path d="M73.76,449.74s-113.87-113,17.06-196.27,77.08-81.39,86-134.15S292.26,30,330.57,104.25s1.56,112.42,73.43,157,88.43,139.24,38.77,188.48Z" style="fill:#92E3A9"></path><path d="M73.76,449.74s-113.87-113,17.06-196.27,77.08-81.39,86-134.15S292.26,30,330.57,104.25s1.56,112.42,73.43,157,88.43,139.24,38.77,188.48Z" style="fill:#fff;opacity:0.7000000000000001"></path></g><g id="freepik--Bubble--inject-15"><polyline points="267.59 145.73 222.59 145.73 222.59 109.59" style="fill:none;stroke:#263238;stroke-linecap:round;stroke-linejoin:round"></polyline><rect x="227.05" y="139.16" width="3.6" height="6.57" style="fill:none;stroke:#263238;stroke-linecap:round;stroke-linejoin:round"></rect><rect x="234.53" y="137.08" width="3.6" height="8.65" style="fill:none;stroke:#263238;stroke-linecap:round;stroke-linejoin:round"></rect><rect x="242.01" y="133.61" width="3.6" height="12.12" style="fill:none;stroke:#263238;stroke-linecap:round;stroke-linejoin:round"></rect><rect x="249.5" y="130.14" width="3.6" height="15.59" style="fill:none;stroke:#263238;stroke-linecap:round;stroke-linejoin:round"></rect><rect x="256.98" y="125.24" width="3.6" height="20.49" style="fill:none;stroke:#263238;stroke-linecap:round;stroke-linejoin:round"></rect><path d="M222.59,139.39s28.85-6.15,42.65-24.43" style="fill:none;stroke:#263238;stroke-linecap:round;stroke-linejoin:round"></path><polyline points="263.43 114.39 266.23 113.62 266.23 116.7" style="fill:none;stroke:#263238;stroke-linecap:round;stroke-linejoin:round"></polyline><path d="M257,91.65c-1.28-.26-2.57-.48-3.88-.65" style="fill:none;stroke:#263238;stroke-linecap:round;stroke-linejoin:round"></path><path d="M268.42,165.92c10.7,5.5,25.5,5.93,25.5,5.93-7.45-5.11-12.57-12.61-15.16-17.07,7.91-6.82,12.79-16.09,12.79-26.32,0-15.8-11.61-29.34-28.12-35" style="fill:none;stroke:#263238;stroke-linecap:round;stroke-linejoin:round"></path><path d="M246,166.38a53.53,53.53,0,0,0,18.17-3.14" style="fill:none;stroke:#263238;stroke-linecap:round;stroke-linejoin:round"></path><path d="M205.39,145.73c6.47,10.5,18.66,18.17,33.15,20.14" style="fill:none;stroke:#263238;stroke-linecap:round;stroke-linejoin:round"></path><path d="M200.4,128.46a32.09,32.09,0,0,0,.57,6" style="fill:none;stroke:#263238;stroke-linecap:round;stroke-linejoin:round"></path><path d="M246,90.54c-20.23,0-37.39,11-43.33,26.16" style="fill:none;stroke:#263238;stroke-linecap:round;stroke-linejoin:round"></path></g><g id="freepik--Character--inject-15"><path d="M324.91,191.65s-19.21,5.66-23.54,14.86-13,34.9-13,34.9-8.12,14.34-8.12,18.67,12,20.39,17.42,24.72,25.65-24.18,25.65-24.18Z" style="fill:#fff;stroke:#263238;stroke-linecap:round;stroke-linejoin:round"></path><path d="M411.75,319.53c.25.22,1,9.84,1,9.84s5.13,10.13,5.07,25.63,4.93,94.89,4.93,94.89H300s8.53-59.52,20.63-89.64c0,0,.37-24.72,7-31.61,0,0-2.88-10.14,3-11.39S411.75,319.53,411.75,319.53Z" style="fill:#999"></path><g style="clip-path:url(#freepik--clip-path--inject-15)"><path d="M422.75,449.89H300s8.53-59.52,20.63-89.64c0,0,.07-4.7.7-10.58,5.65,2.72,13.1,6.64,15.18,9.33,3.49,4.5-8.9,11.07-8.9,11.07a10.93,10.93,0,0,0,8.9,3.48c5.49-.55,27.09-5.48,27.09-5.48s-8.07,4.93-7.09,8.43,9.85,14.9,14.67,17.7-9.8-2.8-9.8-2.8S378,418.26,388,423.63s30.43-11.25,27.5-12.63-14.81-17.55-12.65-20.27c1.24-1.57,8.59,2.56,16.69,4.62C421,421.49,422.75,449.89,422.75,449.89Z" style="opacity:0.2"></path></g><path d="M411.75,319.53c.25.22,1,9.84,1,9.84s5.13,10.13,5.07,25.63,4.93,94.89,4.93,94.89H300s8.53-59.52,20.63-89.64c0,0,.37-24.72,7-31.61,0,0-2.88-10.14,3-11.39S411.75,319.53,411.75,319.53Z" style="fill:none;stroke:#263238;stroke-linecap:round;stroke-linejoin:round"></path><path d="M330.25,319.89a29.4,29.4,0,0,0,0,8.64,61.15,61.15,0,0,0,30.59,10.22c17.66.75,42.84-4,49.75-8v-9.5Z" style="fill:#263238"></path><path d="M341.5,325.07S340,333,341.5,336s15.06,3.82,15.06,3.82l-.43-11.29Z" style="fill:#bfbfbf;stroke:#263238;stroke-linecap:round;stroke-linejoin:round"></path><path d="M388,341.31a79.31,79.31,0,0,0-2.06-12.78l-4.19.11s2.25,7.73,1,12.67" style="fill:#999;stroke:#263238;stroke-linecap:round;stroke-linejoin:round"></path><path d="M323.86,237.58l-.52,23a186.39,186.39,0,0,1-13.43,16.64c-.25-3-.55-6.55-.91-10.59-1.67-18.67,4.67-33.67,4.29-34.78Z" style="fill:#92E3A9;opacity:0.2"></path><path d="M316.1,195a131,131,0,0,1,12.13-5c.52-1.36-.72-5.42,11.8-11.91s30.6-2.43,30.6-2.43l7,8.66s24.35,9.69,30,14.58,10.39,119.45,5.69,123.55c-13.42,11.7-70.32,13.3-85.75-2.2-3.34-3.34-5.59-27.52-12-63.4,0,0-12.19-28-11.53-43.32" style="fill:#fff;stroke:#263238;stroke-linecap:round;stroke-linejoin:round"></path><path d="M377.26,186.13s1.34,12-11,20c0,0-5.67-3.63-9.67-4s-5.38,1-5.38,1-.84-4.7,1.08-7.79,5.68-.71,11.86,7.79C364.19,203.13,374.64,198,377.26,186.13Z" style="fill:#92E3A9;opacity:0.2"></path><path d="M339.12,198.91s-4.87.22-7.31,4.22-3.18,5.5-3.18,5.5-3.92-3.88-1-15.88a38,38,0,0,0,.46,10.38s2.52-9.28,3.74-9.4S335.48,194.33,339.12,198.91Z" style="fill:#92E3A9;opacity:0.2"></path><path d="M331.81,172.35A17.9,17.9,0,0,1,336,188.92l8.77,14.21,5.4-12.58s12.51-3.25,16.16-11.77a53.14,53.14,0,0,1-5.78-32.28C363,127.66,331.81,172.35,331.81,172.35Z" style="fill:#bfbfbf;stroke:#263238;stroke-linecap:round;stroke-linejoin:round"></path><path d="M361.33,155.24c3.87-28.88-4.78-40.4-27.49-38.78s-23.08,27-17.66,37.77c1.82,3.62,1.23,11.54,12.52,24.2,4.33,4.86,15.7,1.2,23.84-6.82" style="fill:#bfbfbf;stroke:#263238;stroke-linecap:round;stroke-linejoin:round"></path><path d="M327.55,148.26s2.23-3.95,8.32,0" style="fill:none;stroke:#263238;stroke-linecap:round;stroke-linejoin:round"></path><path d="M318.42,148.26s-3.3-2.73-4.29,0" style="fill:none;stroke:#263238;stroke-linecap:round;stroke-linejoin:round"></path><path d="M332.92,154.22c.26,1,0,1.92-.64,2.08s-1.32-.51-1.57-1.5,0-1.92.64-2.08S332.67,153.23,332.92,154.22Z" style="fill:#263238"></path><path d="M320.67,154.22c.26,1,0,1.92-.64,2.08s-1.32-.51-1.58-1.5,0-1.92.65-2.08S320.42,153.23,320.67,154.22Z" style="fill:#263238"></path><path d="M321.18,150.47c2.51,3.45.19,7.8-.63,11.16s4.26,3.15,5.68,2" style="fill:none;stroke:#263238;stroke-linecap:round;stroke-linejoin:round"></path><path d="M349.05,152.69s-2.13-6.75,2.44-10.09,4.26,16.8,4.26,16.8l4.36,2.44s6.29-16.64,3.25-28.82S348,112.21,331,116.81c-22.81,6.16-17.68,24.84-17.68,24.84s1-5.28,2.08-5,4.7,3.75,22.39-2.34c0,0,2,1.73,1.55,6s7.14,8.07,8.32,15.18Z" style="fill:#999"></path><g style="clip-path:url(#freepik--clip-path-2--inject-15)"><path d="M349.05,152.69s-2.13-6.75,2.44-10.09,4.26,16.8,4.26,16.8l4.36,2.44s6.29-16.64,3.25-28.82S348,112.21,331,116.81c-22.81,6.16-17.68,24.84-17.68,24.84s1-5.28,2.08-5,4.7,3.75,22.39-2.34c0,0,2,1.73,1.55,6s7.14,8.07,8.32,15.18Z" style="opacity:0.4"></path></g><path d="M349.05,152.69s-2.13-6.75,2.44-10.09,4.26,16.8,4.26,16.8l4.36,2.44s6.29-16.64,3.25-28.82S348,112.21,331,116.81c-22.81,6.16-17.68,24.84-17.68,24.84s1-5.28,2.08-5,4.7,3.75,22.39-2.34c0,0,2,1.73,1.55,6s7.14,8.07,8.32,15.18Z" style="fill:none;stroke:#263238;stroke-linecap:round;stroke-linejoin:round"></path><path d="M319.64,164.81a9.24,9.24,0,0,0,4.71.48l1,1.11.91-1s5.58.73,8.32,0,5.58,1,7,1c0,0,6.08-7.3,5.48-11.06a32.4,32.4,0,0,0-1-4.87s1.15,1.05,1.76.85a1,1,0,0,0,.78-.85s5.91,12,5.78,21.72c0,0-6.76,11.23-15.72,11.87-10.05.71-15.27-3.2-15.27-3.2a21.78,21.78,0,0,1-.87-9.79,9.44,9.44,0,0,0-2.38-1.78A15.25,15.25,0,0,1,319.64,164.81Z" style="fill:#263238"></path><path d="M315.37,136.68a7.77,7.77,0,0,1-4.12-8.22c.94-5.82,5.27-7.85,8.38-9.6,0,0,6.34-5.42,18.13-6.09,14.2-.81,28,6.63,24.76,17.6,0,0-20-8.53-24.76,4C337.76,134.34,324,142.32,315.37,136.68Z" style="fill:#263238"></path><path d="M350.14,146.5s4.46-8.57,7.44-5.73,2.16,7,1.15,11-1.36,3.32-3.25,5.14-3.9,3.67-4.6,1.69a7.15,7.15,0,0,1-.36-3.56" style="fill:#bfbfbf;stroke:#263238;stroke-linecap:round;stroke-linejoin:round"></path><path d="M336.42,171.38c-8,.2-10.62-1-10.62-1a.9.9,0,0,1-.89.39l1.32,2.73s1.32.82,4.74.82C333.86,174.32,336.42,171.38,336.42,171.38Z" style="fill:#fff"></path><path d="M329.58,134.55s-3.25-6.5,5.27-10.45,22.32-2.44,25.67,2" style="fill:none;stroke:#fff;stroke-linecap:round;stroke-linejoin:round;opacity:0.2"></path><path d="M320.77,135.76s-9.36-.4-2.41-9.53,21.67-12,21.67-12" style="fill:none;stroke:#fff;stroke-linecap:round;stroke-linejoin:round;opacity:0.2"></path><path d="M377.66,184.33a28.09,28.09,0,0,1-13.47,18.8s-6.46-9.62-9.86-9.4c-1.66.1-4.19,5.18-4.19,5.18" style="fill:none;stroke:#263238;stroke-linecap:round;stroke-linejoin:round"></path><path d="M328.23,190c-1.16,4.6-.35,13.74-.35,13.74s2.81-9.12,3.93-10c2-1.62,8.22,6.29,8.22,6.29" style="fill:none;stroke:#263238;stroke-linecap:round;stroke-linejoin:round"></path><path d="M344.74,203.13,340,206.24s5.34,5.95,4.71,11.36S346,234.92,346,234.92" style="fill:none;stroke:#263238;stroke-linecap:round;stroke-linejoin:round"></path><path d="M299.45,257.81a36.37,36.37,0,0,1,3.72,20.61s-7,9.7-12.37,11.15c-13.06,3.52-20.93-25.51-36.62-64.49-1-2.5,7.91-15.71,7.91-15.71L288,249.68A15.17,15.17,0,0,1,299.45,257.81Z" style="fill:#bfbfbf;stroke:#263238;stroke-linecap:round;stroke-linejoin:round"></path><path d="M261,212.3l-6.65-9s-10-5.74-11.11-2.31c-1.63,5.14-9.83,6.66-9.83,6.66.72,2.63,8.73,14.35,13.27,17s5,3.43,6.87,4c4.75,1.27,5.88-2.14,5.88-2.14" style="fill:#bfbfbf;stroke:#263238;stroke-linecap:round;stroke-linejoin:round"></path><path d="M208.08,251.49s-36.53-33.94,8.84-46.2,33.44,32.64,33.44,32.64l-3,.52s11.89-40.18-28.9-29.7-8.69,40.69-8.69,40.69Z" style="fill:#757575;stroke:#263238;stroke-linecap:round;stroke-linejoin:round"></path><path d="M256.63,218.44c-7.67-3.74-5-10.59-12.46-14.91-2-1.16-8.49-.45-10.54-1.89-3.08-2.15-2-3.63-1.92-3.89.1-.59,2.26,1.33,9.62-.75,2.94-.83,11,1.69,13.52,3.89,5.92,5.14,11.07,11.2,10.51,15.94-.32,2.73-3.36,3.83-3.36,3.83" style="fill:#bfbfbf;stroke:#263238;stroke-linecap:round;stroke-linejoin:round"></path><path d="M234.63,206.84s6.43-1.57,8.48-1.55c2.82,0,3.71.42,4.38,1.62a3.13,3.13,0,0,1-.12,2.68,4.73,4.73,0,0,1,2.31,2.39,4.44,4.44,0,0,1-.65,3.29,6.7,6.7,0,0,1,2.93,1.78,2.21,2.21,0,0,1,.16,3s3.62,2.48,1.61,4-7.5,3.71-10,3.47S225.56,208.23,234.63,206.84Z" style="fill:#bfbfbf;stroke:#263238;stroke-linecap:round;stroke-linejoin:round"></path><path d="M247.37,209.59s-10.22,3.13-13,3.06" style="fill:none;stroke:#263238;stroke-linecap:round;stroke-linejoin:round"></path><path d="M249,215.27s-8.7,3.13-10.49,3.48" style="fill:none;stroke:#263238;stroke-linecap:round;stroke-linejoin:round"></path><path d="M252.12,220a80.21,80.21,0,0,1-9.58,3.32" style="fill:none;stroke:#263238;stroke-linecap:round;stroke-linejoin:round"></path><path d="M207.4,246.32s11.2-19.16,39-15.73l22.85,47.56s-14.34,27.2-54.91,20.76Z" style="fill:#757575;stroke:#263238;stroke-linecap:round;stroke-linejoin:round"></path><path d="M218.16,284.35s-24.45-18.14-41,.34l7.52,5.63s7.71-16.21,33.75,3.8" style="fill:#757575;stroke:#263238;stroke-linecap:round;stroke-linejoin:round"></path><path d="M209.73,246.52s26.37,2.6,34.54-14.63" style="fill:#757575;stroke:#263238;stroke-linecap:round;stroke-linejoin:round"></path><path d="M163.23,286.31s10.38-7.29,19.58-1.92a14.31,14.31,0,0,1,7,15S176,300.47,163.23,286.31Z" style="fill:#757575;stroke:#263238;stroke-linecap:round;stroke-linejoin:round"></path><path d="M168.31,286.35s16.14,4.31,21.54,13.06" style="fill:none;stroke:#263238;stroke-linecap:round;stroke-linejoin:round"></path><path d="M230.6,234.25l-1.87-7.79s-10.41-.28-14,5.71l4.64,6.14" style="fill:#757575;stroke:#263238;stroke-linecap:round;stroke-linejoin:round"></path><path d="M230,235.88a17,17,0,0,1-6.68,2.05" style="fill:none;stroke:#263238;stroke-linecap:round;stroke-linejoin:round"></path><path d="M221.29,285.9s2.35,3.19-.6,7.25" style="fill:none;stroke:#263238;stroke-linecap:round;stroke-linejoin:round"></path><path d="M408.67,246.66s-9.67,33.34-31,50c-9.74,7.61-54.32-4.67-54.32-4.67l2.89-17.28,14.6-6.92s25.84-40.45,39.84-44.46S408.67,246.66,408.67,246.66Z" style="fill:#92E3A9;opacity:0.2"></path><path d="M396.07,199.75c-10.29.29-37.34,49.86-37.34,49.86-7.33,2.78-3.84,9.2-3.84,9.2s17.19,21.8,20.44,23.66c8,4.6,10.89-3.45,10.89-3.45S420,248.33,417.7,223.34s-10-24.43-10-24.43" style="fill:#fff;stroke:#263238;stroke-linecap:round;stroke-linejoin:round"></path><path d="M356.69,256.87,346.39,268c-21.89-2.13-61.8,14.45-73.34,8.42-6.71-3.51-22.82.1-25.22,1.31s-7.47,7.49-5.59,8.3,6-2.94,8.34-2.6a37,37,0,0,0,6.47-.06S246.9,293,244.63,293.41s-13.8,5.33-9.62,6.19c5.85,1.2,8.08.6,8.08.6s5.28,3.75,9.21,4.15c2,.21,13.1-1.79,13.1-1.79l10.14-9.67s67.48,3.51,79.35-1.48c15.48-6.5,20.44-11.87,20.44-11.87S368.78,260.54,356.69,256.87Z" style="fill:#bfbfbf;stroke:#263238;stroke-linecap:round;stroke-linejoin:round"></path><path d="M346.86,338.51c-.23-.05-5.22,29.49,1.84,35.74,0,0,4.08,14.11,3.32,23.81s4.54,29.44,4.54,29.44l3.54,22.39" style="fill:none;stroke:#263238;stroke-linecap:round;stroke-linejoin:round"></path><path d="M352,339.38S349.5,354,350.5,359.25s-1.17,10.64-4.21,10.82" style="fill:none;stroke:#263238;stroke-linecap:round;stroke-linejoin:round"></path><path d="M398.63,334.92s4.54,24.35,12,26.36" style="fill:none;stroke:#263238;stroke-linecap:round;stroke-linejoin:round"></path><path d="M407.75,331.56a168.11,168.11,0,0,1,2.84,37C410,390,414.85,433,415.3,438.25a89,89,0,0,1,0,11.64" style="fill:none;stroke:#263238;stroke-linecap:round;stroke-linejoin:round"></path><path d="M367.67,366.67c-1.92.83-25.42,7.83-29.92,13.33" style="fill:none;stroke:#263238;stroke-linecap:round;stroke-linejoin:round"></path><path d="M352,380.56s16.23,19.69,24.11,21.69" style="fill:none;stroke:#263238;stroke-linecap:round;stroke-linejoin:round"></path><path d="M344.93,382.5S320,407,315.61,404.22" style="fill:none;stroke:#263238;stroke-linecap:round;stroke-linejoin:round"></path><path d="M352.71,411s-6.88,27.2-6.42,30.22-2.34,8.67-2.34,8.67" style="fill:none;stroke:#263238;stroke-linecap:round;stroke-linejoin:round"></path><path d="M346,304.37s1.51,7.84,0,12.61.14,12,2.21,12.38" style="fill:none;stroke:#263238;stroke-linecap:round;stroke-linejoin:round"></path><path d="M288,249.68s8,8.64,8,15.35" style="fill:none;stroke:#263238;stroke-linecap:round;stroke-linejoin:round"></path><path d="M186.75,304.37s-.66,2.13-1.59,5.78" style="fill:none;stroke:#263238;stroke-linecap:round;stroke-linejoin:round"></path><path d="M183.73,316.09c-.59,2.67-1.22,5.7-1.82,9" style="fill:none;stroke:#263238;stroke-linecap:round;stroke-linejoin:round;stroke-dasharray:6.114409923553467,6.114409923553467"></path><path d="M181.39,328.1c-.31,1.91-.62,3.89-.89,5.94" style="fill:none;stroke:#263238;stroke-linecap:round;stroke-linejoin:round"></path><path d="M173.13,299.16s-1.23,1.91-3,5.18" style="fill:none;stroke:#263238;stroke-linecap:round;stroke-linejoin:round"></path><path d="M166.22,312.07a124.41,124.41,0,0,0-4.87,12" style="fill:none;stroke:#263238;stroke-linecap:round;stroke-linejoin:round;stroke-dasharray:8.658599853515625,8.658599853515625"></path><path d="M160,328.23q-.84,2.85-1.52,5.81" style="fill:none;stroke:#263238;stroke-linecap:round;stroke-linejoin:round"></path><path d="M163.23,290.92a22.35,22.35,0,0,0-5.22,2.92" style="fill:none;stroke:#263238;stroke-linecap:round;stroke-linejoin:round"></path><path d="M152.61,298a63.18,63.18,0,0,0-7.2,7.24" style="fill:none;stroke:#263238;stroke-linecap:round;stroke-linejoin:round;stroke-dasharray:6.815130233764648,6.815130233764648"></path><path d="M143.29,307.91a52.9,52.9,0,0,0-3.3,5" style="fill:none;stroke:#263238;stroke-linecap:round;stroke-linejoin:round"></path><path d="M358.73,249.61c7.52,1.14,18.52,14.89,20.52,20.14" style="fill:none;stroke:#263238;stroke-linecap:round;stroke-linejoin:round"></path><path d="M415.3,231.89s-18.05,11-36.05,12.11" style="fill:none;stroke:#263238;stroke-linecap:round;stroke-linejoin:round"></path><path d="M287,244s9.28-1.88,14,5.68A50.27,50.27,0,0,1,307.25,265" style="fill:none;stroke:#263238;stroke-linecap:round;stroke-linejoin:round"></path><path d="M300,227.46s4.49,9.85,9.75,13.94" style="fill:none;stroke:#263238;stroke-linecap:round;stroke-linejoin:round"></path><path d="M346,256a82.56,82.56,0,0,1,.38,12" style="fill:none;stroke:#263238;stroke-linecap:round;stroke-linejoin:round"></path><path d="M331.5,302s19.75,22.23,50.25,16.24" style="fill:none;stroke:#263238;stroke-linecap:round;stroke-linejoin:round"></path><path d="M347.67,209a1.12,1.12,0,1,1-1.12-1.17A1.15,1.15,0,0,1,347.67,209Z" style="fill:#263238"></path><path d="M349.06,238.45a1.12,1.12,0,1,1-1.12-1.17A1.14,1.14,0,0,1,349.06,238.45Z" style="fill:#263238"></path></g><g id="freepik--Table--inject-15"><line x1="36" y1="449.89" x2="464" y2="449.89" style="fill:none;stroke:#263238;stroke-linecap:round;stroke-linejoin:round"></line></g><g id="freepik--Plant--inject-15"><path d="M123.52,392.45s16.15-5.67,5.63-37.58,2.94-31.21,8.94-47.35-2.86-27.07-2.86-27.07" style="fill:none;stroke:#263238;stroke-linecap:round;stroke-linejoin:round;stroke-width:3px"></path><path d="M131.5,384.56h-47s6.34,47.76,8.17,61.58c.33,2.51,2.33,3.75,4.75,3.75h65.16c2.42,0,4.42-1.24,4.75-3.75,1.83-13.82,8.17-61.58,8.17-61.58Z" style="fill:#263238"></path><path d="M82.76,380.56h94.48a2.23,2.23,0,0,1,2.23,2.23v3.53a2.23,2.23,0,0,1-2.23,2.23H82.76a2.24,2.24,0,0,1-2.24-2.24v-3.53a2.24,2.24,0,0,1,2.24-2.24Z" style="fill:#263238"></path><line x1="89.51" y1="388.56" x2="137.18" y2="388.56" style="fill:none;stroke:#fff;stroke-linecap:round;stroke-linejoin:round"></line><line x1="143.18" y1="388.56" x2="146.85" y2="388.56" style="fill:none;stroke:#fff;stroke-linecap:round;stroke-linejoin:round"></line><line x1="168.85" y1="388.56" x2="162.18" y2="388.56" style="fill:none;stroke:#fff;stroke-linecap:round;stroke-linejoin:round"></line><line x1="93.18" y1="404.22" x2="111.85" y2="404.22" style="fill:none;stroke:#fff;stroke-linecap:round;stroke-linejoin:round"></line><line x1="122.51" y1="404.22" x2="127.51" y2="404.22" style="fill:none;stroke:#fff;stroke-linecap:round;stroke-linejoin:round"></line><line x1="167.51" y1="404.22" x2="149.51" y2="404.22" style="fill:none;stroke:#fff;stroke-linecap:round;stroke-linejoin:round"></line><line x1="165.51" y1="417.22" x2="162.18" y2="417.22" style="fill:none;stroke:#fff;stroke-linecap:round;stroke-linejoin:round"></line><line x1="111.85" y1="417.22" x2="104.85" y2="417.22" style="fill:none;stroke:#fff;stroke-linecap:round;stroke-linejoin:round"></line><line x1="145.01" y1="429.89" x2="156.51" y2="429.89" style="fill:none;stroke:#fff;stroke-linecap:round;stroke-linejoin:round"></line><line x1="118.18" y1="429.89" x2="100.18" y2="429.89" style="fill:none;stroke:#fff;stroke-linecap:round;stroke-linejoin:round"></line><line x1="96.51" y1="441.22" x2="102.51" y2="441.22" style="fill:none;stroke:#fff;stroke-linecap:round;stroke-linejoin:round"></line><line x1="111.85" y1="441.22" x2="146.85" y2="441.22" style="fill:none;stroke:#fff;stroke-linecap:round;stroke-linejoin:round"></line><line x1="163.85" y1="441.22" x2="158.51" y2="441.22" style="fill:none;stroke:#fff;stroke-linecap:round;stroke-linejoin:round"></line><path d="M147.17,415.22A17.17,17.17,0,1,1,130,398.06,17.17,17.17,0,0,1,147.17,415.22Z" style="fill:#92E3A9;stroke:#263238;stroke-linecap:round;stroke-linejoin:round"></path><path d="M128.66,407.32v-1.15h2.68v1.15c2.32.36,3.5,1.68,3.5,3.78v.49h-3.09V411c0-1.11-.59-1.53-1.63-1.53s-1.63.42-1.63,1.53.59,1.87,2.79,3.18c2.67,1.59,3.59,2.8,3.59,4.57,0,2.1-1.21,3.45-3.53,3.8v1.13h-2.68V422.5c-2.34-.35-3.53-1.7-3.53-3.8v-1.06h3.09v1.22c0,1.1.65,1.5,1.69,1.5s1.7-.4,1.7-1.5-.6-1.9-2.8-3.19c-2.67-1.56-3.59-2.8-3.59-4.57C125.22,409,126.38,407.7,128.66,407.32Z" style="fill:#fff;stroke:#263238;stroke-linecap:round;stroke-linejoin:round"></path><path d="M144.25,415.22A14.25,14.25,0,1,1,130,401,14.26,14.26,0,0,1,144.25,415.22Z" style="fill:none;stroke:#263238;stroke-linecap:round;stroke-linejoin:round"></path><path d="M127.86,350.72s3.43-17.77,17.79-19.16,16-12.64,16-12.64" style="fill:none;stroke:#263238;stroke-linecap:round;stroke-linejoin:round;stroke-width:3px"></path><path d="M129.32,319.91s-3.49-1.68-16.43-9.56-12.44-20.44-12.44-20.44" style="fill:none;stroke:#263238;stroke-linecap:round;stroke-linejoin:round;stroke-width:3px"></path><path d="M132.09,366.67s-25.33-1-29.09-21.78" style="fill:none;stroke:#263238;stroke-linecap:round;stroke-linejoin:round;stroke-width:3px"></path><path d="M148.1,271.57a11.42,11.42,0,1,1-9.95-12.72A11.42,11.42,0,0,1,148.1,271.57Z" style="fill:#fff"></path><path d="M148.1,271.57a11.42,11.42,0,1,1-9.95-12.72A11.42,11.42,0,0,1,148.1,271.57Z" style="fill:none;stroke:#263238;stroke-linecap:round;stroke-linejoin:round"></path><path d="M145.92,271.3a9.22,9.22,0,1,1-8-10.27A9.21,9.21,0,0,1,145.92,271.3Z" style="fill:none;stroke:#263238;stroke-linecap:round;stroke-linejoin:round"></path><path d="M135.39,265.6a2,2,0,0,1,1.36-.67l.09-.76,1.32.16-.1.76a2,2,0,0,1,1.19,1,3,3,0,0,1,.23,1.74l0,.32-1.52-.18.05-.43a1.12,1.12,0,0,0-.11-.79.74.74,0,0,0-.57-.31.71.71,0,0,0-.62.17,1.13,1.13,0,0,0-.3.74,1.75,1.75,0,0,0,.08.83,3,3,0,0,0,.37.68c.15.2.38.45.66.76a7.69,7.69,0,0,1,.82.93,3.27,3.27,0,0,1,.49,1,3.11,3.11,0,0,1,.09,1.31,3,3,0,0,1-.65,1.64,2,2,0,0,1-1.39.66l-.09.74-1.32-.16.1-.74a2,2,0,0,1-1.2-1,2.91,2.91,0,0,1-.23-1.74l.08-.7,1.52.18-.1.8c-.08.66.16,1,.71,1.1s.87-.23.95-.89a1.81,1.81,0,0,0-.08-.84,2.62,2.62,0,0,0-.37-.68,8.4,8.4,0,0,0-.66-.75,8.66,8.66,0,0,1-.82-.94,3.26,3.26,0,0,1-.48-1,3.38,3.38,0,0,1,.54-2.92Z" style="fill:#263238"></path><path d="M112.16,280.64a11.42,11.42,0,1,1-12.86-9.78A11.42,11.42,0,0,1,112.16,280.64Z" style="fill:#fff"></path><path d="M112.16,280.64a11.42,11.42,0,1,1-12.86-9.78A11.42,11.42,0,0,1,112.16,280.64Z" style="fill:none;stroke:#263238;stroke-linecap:round;stroke-linejoin:round"></path><path d="M110,280.93A9.22,9.22,0,1,1,99.6,273,9.22,9.22,0,0,1,110,280.93Z" style="fill:none;stroke:#263238;stroke-linecap:round;stroke-linejoin:round"></path><path d="M98.36,278.07a2,2,0,0,1,1.15-1l-.11-.76,1.31-.18.11.76a2,2,0,0,1,1.39.64,3,3,0,0,1,.67,1.62l0,.32-1.52.2-.05-.42a1.16,1.16,0,0,0-.31-.73.86.86,0,0,0-1.19.16,1.13,1.13,0,0,0-.1.79,1.67,1.67,0,0,0,.29.78,2.62,2.62,0,0,0,.53.57c.2.15.47.34.83.56a8.64,8.64,0,0,1,1,.7,3.1,3.1,0,0,1,.72.83,2.94,2.94,0,0,1,.42,1.24,2.88,2.88,0,0,1-.21,1.75,2,2,0,0,1-1.18,1l.1.75-1.31.17-.1-.74a2,2,0,0,1-1.41-.64,2.9,2.9,0,0,1-.66-1.63l-.1-.69,1.52-.21.11.8c.08.66.41,1,1,.88s.78-.45.69-1.11a1.67,1.67,0,0,0-.29-.78,2.62,2.62,0,0,0-.53-.57c-.2-.15-.47-.34-.83-.56a8.7,8.7,0,0,1-1-.69,3.32,3.32,0,0,1-.72-.84,3.48,3.48,0,0,1-.22-3Z" style="fill:#263238"></path><path d="M111.5,335.26a11.42,11.42,0,1,1-12.29-10.48A11.41,11.41,0,0,1,111.5,335.26Z" style="fill:#fff"></path><path d="M111.5,335.26a11.42,11.42,0,1,1-12.29-10.48A11.41,11.41,0,0,1,111.5,335.26Z" style="fill:none;stroke:#263238;stroke-linecap:round;stroke-linejoin:round"></path><path d="M109.31,335.43A9.22,9.22,0,1,1,99.38,327,9.23,9.23,0,0,1,109.31,335.43Z" style="fill:none;stroke:#263238;stroke-linecap:round;stroke-linejoin:round"></path><path d="M97.84,332a2,2,0,0,1,1.2-.93l-.06-.76,1.32-.11.06.76a2,2,0,0,1,1.35.71,3,3,0,0,1,.58,1.66l0,.32-1.52.12,0-.42a1.13,1.13,0,0,0-.26-.75.86.86,0,0,0-1.2.09,1.15,1.15,0,0,0-.15.79,1.8,1.8,0,0,0,.25.79,2.66,2.66,0,0,0,.5.6,8,8,0,0,0,.8.61,9.71,9.71,0,0,1,1,.75,3.35,3.35,0,0,1,.67.87,3.09,3.09,0,0,1,.35,1.27,2.92,2.92,0,0,1-.31,1.73,2,2,0,0,1-1.23.92l.06.75-1.32.11-.06-.75a2,2,0,0,1-1.37-.72,3,3,0,0,1-.57-1.66l-.06-.7,1.53-.13.06.81c0,.67.36,1,.91.93s.81-.4.76-1.06a1.84,1.84,0,0,0-.25-.8,2.66,2.66,0,0,0-.5-.6c-.19-.16-.45-.36-.8-.6a8.45,8.45,0,0,1-1-.76,3.37,3.37,0,0,1-.68-.87,3.16,3.16,0,0,1-.35-1.26A2.84,2.84,0,0,1,97.84,332Z" style="fill:#263238"></path><path d="M178.07,315.64a11.42,11.42,0,1,1-5.56-15.16A11.42,11.42,0,0,1,178.07,315.64Z" style="fill:#fff"></path><path d="M178.07,315.64a11.42,11.42,0,1,1-5.56-15.16A11.42,11.42,0,0,1,178.07,315.64Z" style="fill:none;stroke:#263238;stroke-linecap:round;stroke-linejoin:round"></path><path d="M176.08,314.72a9.22,9.22,0,1,1-4.49-12.25A9.21,9.21,0,0,1,176.08,314.72Z" style="fill:none;stroke:#263238;stroke-linecap:round;stroke-linejoin:round"></path><path d="M167.78,306.06a2,2,0,0,1,1.5-.22l.32-.69,1.2.56-.32.69a2,2,0,0,1,.83,1.28,3,3,0,0,1-.31,1.73l-.14.29-1.38-.64.17-.39a1.16,1.16,0,0,0,.14-.79.72.72,0,0,0-.44-.47.75.75,0,0,0-.65,0,1.19,1.19,0,0,0-.51.61,1.77,1.77,0,0,0-.18.82,2.69,2.69,0,0,0,.14.76c.09.24.22.55.4.92a9.49,9.49,0,0,1,.49,1.14,3.44,3.44,0,0,1,.16,1.1,3.15,3.15,0,0,1-.31,1.27,3,3,0,0,1-1.13,1.36,2,2,0,0,1-1.52.2l-.32.68-1.2-.56L165,315a2,2,0,0,1-.84-1.29,3,3,0,0,1,.31-1.74l.3-.64,1.39.65-.34.73c-.28.6-.17,1,.34,1.26s.9,0,1.18-.56a1.82,1.82,0,0,0,.17-.81,2.44,2.44,0,0,0-.14-.77,8,8,0,0,0-.4-.92,8.29,8.29,0,0,1-.49-1.14,3.13,3.13,0,0,1-.15-1.09,2.92,2.92,0,0,1,.31-1.27A3,3,0,0,1,167.78,306.06Z" style="fill:#263238"></path><path d="M161.16,320.84c0,.71,10.65-7,21-2.09,0,0-10.82,9.83-21.29,3.72s-9-21.1-9-21.1S162,308.44,161.16,320.84Z" style="fill:#92E3A9;stroke:#263238;stroke-linecap:round;stroke-linejoin:round"></path><path d="M136.78,281.87c.34.62,5.14-11.67,16.54-13.17,0,0-3.76,14.13-15.87,14.67s-19-12.85-19-12.85S130.75,271,136.78,281.87Z" style="fill:#92E3A9;stroke:#263238;stroke-linecap:round;stroke-linejoin:round"></path><path d="M102.13,294.76c.44.56,3.24-12.34,14.25-15.62,0,0-1.48,14.55-13.34,17s-20.78-9.69-20.78-9.69S94.46,285,102.13,294.76Z" style="fill:#92E3A9;stroke:#263238;stroke-linecap:round;stroke-linejoin:round"></path><path d="M104.44,349.2c.53.47,1.08-12.72,11.37-17.83,0,0,1,14.59-10.24,19s-22.13-6-22.13-6S95.22,340.86,104.44,349.2Z" style="fill:#92E3A9;stroke:#263238;stroke-linecap:round;stroke-linejoin:round"></path><path d="M251.5,384.56h-47s6.34,47.76,8.17,61.58c.33,2.51,2.33,3.75,4.75,3.75h65.16c2.42,0,4.42-1.24,4.75-3.75,1.84-13.82,8.17-61.58,8.17-61.58Z" style="fill:#263238"></path><path d="M202.76,380.56h94.48a2.24,2.24,0,0,1,2.24,2.24v3.53a2.23,2.23,0,0,1-2.23,2.23H202.76a2.24,2.24,0,0,1-2.24-2.24v-3.53A2.23,2.23,0,0,1,202.76,380.56Z" style="fill:#263238"></path><line x1="209.51" y1="388.56" x2="257.18" y2="388.56" style="fill:none;stroke:#fff;stroke-linecap:round;stroke-linejoin:round"></line><line x1="263.18" y1="388.56" x2="266.85" y2="388.56" style="fill:none;stroke:#fff;stroke-linecap:round;stroke-linejoin:round"></line><line x1="288.85" y1="388.56" x2="282.18" y2="388.56" style="fill:none;stroke:#fff;stroke-linecap:round;stroke-linejoin:round"></line><line x1="213.18" y1="404.22" x2="231.85" y2="404.22" style="fill:none;stroke:#fff;stroke-linecap:round;stroke-linejoin:round"></line><line x1="242.51" y1="404.22" x2="247.51" y2="404.22" style="fill:none;stroke:#fff;stroke-linecap:round;stroke-linejoin:round"></line><line x1="287.51" y1="404.22" x2="269.51" y2="404.22" style="fill:none;stroke:#fff;stroke-linecap:round;stroke-linejoin:round"></line><line x1="285.51" y1="417.22" x2="282.18" y2="417.22" style="fill:none;stroke:#fff;stroke-linecap:round;stroke-linejoin:round"></line><line x1="231.85" y1="417.22" x2="224.85" y2="417.22" style="fill:none;stroke:#fff;stroke-linecap:round;stroke-linejoin:round"></line><line x1="265.01" y1="429.89" x2="276.51" y2="429.89" style="fill:none;stroke:#fff;stroke-linecap:round;stroke-linejoin:round"></line><line x1="238.18" y1="429.89" x2="220.18" y2="429.89" style="fill:none;stroke:#fff;stroke-linecap:round;stroke-linejoin:round"></line><line x1="216.51" y1="441.22" x2="222.51" y2="441.22" style="fill:none;stroke:#fff;stroke-linecap:round;stroke-linejoin:round"></line><line x1="231.85" y1="441.22" x2="266.85" y2="441.22" style="fill:none;stroke:#fff;stroke-linecap:round;stroke-linejoin:round"></line><line x1="283.85" y1="441.22" x2="278.51" y2="441.22" style="fill:none;stroke:#fff;stroke-linecap:round;stroke-linejoin:round"></line><path d="M267.17,415.22A17.17,17.17,0,1,1,250,398.06,17.17,17.17,0,0,1,267.17,415.22Z" style="fill:#92E3A9;stroke:#263238;stroke-linecap:round;stroke-linejoin:round"></path><path d="M264.25,415.22A14.25,14.25,0,1,1,250,401,14.26,14.26,0,0,1,264.25,415.22Z" style="fill:none;stroke:#263238;stroke-linecap:round;stroke-linejoin:round"></path><polygon points="250 407.17 245.8 411.33 245.8 408.5 244.47 408.5 244.47 412.65 242.19 414.91 244.19 414.91 244.19 421.78 255.81 421.78 255.81 414.91 257.81 414.91 250 407.17" style="fill:#fff;stroke:#263238;stroke-linecap:round;stroke-linejoin:round"></polygon><path d="M250.89,389.5s6-11.5-8.38-21.5-17.5-20.36-15.19-28.18" style="fill:none;stroke:#263238;stroke-linecap:round;stroke-linejoin:round;stroke-width:3px"></path><path d="M248.51,373.55s-1.68-7.49,11.47-12.77,15.11-21,15.11-21" style="fill:none;stroke:#263238;stroke-linecap:round;stroke-linejoin:round;stroke-width:3px"></path><path d="M234.64,327.26c2.11,0,1.74,13.24-8,15.74,0,0-4.74-1.49-5.49-7.87a9.48,9.48,0,0,1,3.71-9.18,30.42,30.42,0,0,0,2.47,6S230.64,327.28,234.64,327.26Z" style="fill:#92E3A9;stroke:#263238;stroke-linecap:round;stroke-linejoin:round"></path><path d="M227.32,331.94s-2.69,2.24-.74,6.31" style="fill:#92E3A9;stroke:#263238;stroke-linecap:round;stroke-linejoin:round"></path><path d="M274.41,343s-7-6.37-4.9-11.06a15.33,15.33,0,0,1,6.63-6.87s1.5,2.91,2.37,4.3l3.59-2.11S289.44,341.5,274.41,343Z" style="fill:#92E3A9;stroke:#263238;stroke-linecap:round;stroke-linejoin:round"></path><path d="M278.51,329.37s4.38,7-1.12,10.45" style="fill:#92E3A9;stroke:#263238;stroke-linecap:round;stroke-linejoin:round"></path><path d="M253.16,364.59s-6.77-17-1.16-36.06" style="fill:none;stroke:#263238;stroke-linecap:round;stroke-linejoin:round;stroke-width:3px"></path><path d="M252.32,328.64s9-2.89,9-8a15.31,15.31,0,0,0-3.17-9s-2.58,2-3.95,2.93l-2.39-3.41S239.27,321,252.32,328.64Z" style="fill:#92E3A9;stroke:#263238;stroke-linecap:round;stroke-linejoin:round"></path><path d="M254.24,314.54s-6.89,4.57-3.31,10" style="fill:#92E3A9;stroke:#263238;stroke-linecap:round;stroke-linejoin:round"></path><path d="M371.5,384.56h-47s6.33,47.76,8.17,61.58c.33,2.51,2.33,3.75,4.75,3.75h65.16c2.42,0,4.42-1.24,4.75-3.75,1.84-13.82,8.17-61.58,8.17-61.58Z" style="fill:#263238"></path><path d="M322.76,380.56h94.48a2.23,2.23,0,0,1,2.23,2.23v3.53a2.23,2.23,0,0,1-2.23,2.23H322.76a2.24,2.24,0,0,1-2.24-2.24v-3.53A2.23,2.23,0,0,1,322.76,380.56Z" style="fill:#263238"></path><line x1="329.51" y1="388.56" x2="377.18" y2="388.56" style="fill:none;stroke:#fff;stroke-linecap:round;stroke-linejoin:round"></line><line x1="383.18" y1="388.56" x2="386.85" y2="388.56" style="fill:none;stroke:#fff;stroke-linecap:round;stroke-linejoin:round"></line><line x1="408.85" y1="388.56" x2="402.18" y2="388.56" style="fill:none;stroke:#fff;stroke-linecap:round;stroke-linejoin:round"></line><line x1="333.18" y1="404.22" x2="351.85" y2="404.22" style="fill:none;stroke:#fff;stroke-linecap:round;stroke-linejoin:round"></line><line x1="362.51" y1="404.22" x2="367.51" y2="404.22" style="fill:none;stroke:#fff;stroke-linecap:round;stroke-linejoin:round"></line><line x1="407.51" y1="404.22" x2="389.51" y2="404.22" style="fill:none;stroke:#fff;stroke-linecap:round;stroke-linejoin:round"></line><line x1="405.51" y1="417.22" x2="402.18" y2="417.22" style="fill:none;stroke:#fff;stroke-linecap:round;stroke-linejoin:round"></line><line x1="351.85" y1="417.22" x2="344.85" y2="417.22" style="fill:none;stroke:#fff;stroke-linecap:round;stroke-linejoin:round"></line><line x1="385.01" y1="429.89" x2="396.51" y2="429.89" style="fill:none;stroke:#fff;stroke-linecap:round;stroke-linejoin:round"></line><line x1="358.18" y1="429.89" x2="340.18" y2="429.89" style="fill:none;stroke:#fff;stroke-linecap:round;stroke-linejoin:round"></line><line x1="336.51" y1="441.22" x2="342.51" y2="441.22" style="fill:none;stroke:#fff;stroke-linecap:round;stroke-linejoin:round"></line><line x1="351.85" y1="441.22" x2="386.85" y2="441.22" style="fill:none;stroke:#fff;stroke-linecap:round;stroke-linejoin:round"></line><line x1="403.85" y1="441.22" x2="398.51" y2="441.22" style="fill:none;stroke:#fff;stroke-linecap:round;stroke-linejoin:round"></line><path d="M387.17,415.22A17.17,17.17,0,1,1,370,398.06,17.17,17.17,0,0,1,387.17,415.22Z" style="fill:#92E3A9;stroke:#263238;stroke-linecap:round;stroke-linejoin:round"></path><path d="M376.56,413.34v6s-1.26,2.1-6.56,2.1-6.56-2.1-6.56-2.1v-6" style="fill:#fff;stroke:#263238;stroke-linecap:round;stroke-linejoin:round"></path><polygon points="370 409.01 379.1 412.39 370 415.77 360.9 412.39 370 409.01" style="fill:#fff;stroke:#263238;stroke-linecap:round;stroke-linejoin:round"></polygon><polyline points="370 412.39 373.81 414.36 373.81 423.43" style="fill:none;stroke:#263238;stroke-linecap:round;stroke-linejoin:round"></polyline><path d="M384.25,415.22A14.25,14.25,0,1,1,370,401,14.26,14.26,0,0,1,384.25,415.22Z" style="fill:none;stroke:#263238;stroke-linecap:round;stroke-linejoin:round"></path><path d="M370,393.33s-4.55-11.66,0-26.66" style="fill:none;stroke:#263238;stroke-linecap:round;stroke-linejoin:round;stroke-width:3px"></path><path d="M370,354s14.25,9.67-2,19.33C368,373.33,351.85,363.67,370,354Z" style="fill:#92E3A9;stroke:#263238;stroke-linecap:round;stroke-linejoin:round"></path><path d="M370,354s2.45,3.67,0,7a10,10,0,0,0-1.43,7.55" style="fill:none;stroke:#263238;stroke-linecap:round;stroke-linejoin:round"></path></g></svg>